# WaveFront *.obj file (generated by Autodesk ATF)

mtllib trilho-led.mtl

g trilho-led

v 140.420000 -93.100000 3.050000
v 140.471764 -93.100000 3.056815
v 140.520000 -93.100000 3.076795
v 140.561421 -93.100000 3.108579
v 140.593205 -93.100000 3.150000
v 140.613185 -93.100000 3.198236
v 140.620000 -93.100000 3.250000
v 140.620000 -90.100000 3.250000
v 140.613185 -90.100000 3.198236
v 140.593205 -90.100000 3.150000
v 140.561421 -90.100000 3.108579
v 140.520000 -90.100000 3.076795
v 140.471764 -90.100000 3.056815
v 140.420000 -90.100000 3.050000
v 140.471764 -92.100000 3.056815
v 140.471764 -91.100000 3.056815
v 140.520000 -92.100000 3.076795
v 140.520000 -91.100000 3.076795
v 140.561421 -92.100000 3.108579
v 140.561421 -91.100000 3.108579
v 140.593205 -92.100000 3.150000
v 140.593205 -91.100000 3.150000
v 140.613185 -92.100000 3.198236
v 140.613185 -91.100000 3.198236
v 140.620000 -93.100000 13.850000
v 140.620000 -90.100000 13.850000
v 131.620000 -93.100000 3.250000
v 131.626815 -93.100000 3.198236
v 131.646795 -93.100000 3.150000
v 131.678579 -93.100000 3.108579
v 131.720000 -93.100000 3.076795
v 131.768236 -93.100000 3.056815
v 131.820000 -93.100000 3.050000
v 131.820000 -90.100000 3.050000
v 131.768236 -90.100000 3.056815
v 131.720000 -90.100000 3.076795
v 131.678579 -90.100000 3.108579
v 131.646795 -90.100000 3.150000
v 131.626815 -90.100000 3.198236
v 131.620000 -90.100000 3.250000
v 131.626815 -92.100000 3.198236
v 131.626815 -91.100000 3.198236
v 131.646795 -92.100000 3.150000
v 131.646795 -91.100000 3.150000
v 131.678579 -92.100000 3.108579
v 131.678579 -91.100000 3.108579
v 131.720000 -92.100000 3.076795
v 131.720000 -91.100000 3.076795
v 131.768236 -92.100000 3.056815
v 131.768236 -91.100000 3.056815
v 140.613185 -93.100000 13.901764
v 140.593205 -93.100000 13.950000
v 140.561421 -93.100000 13.991421
v 140.520000 -93.100000 14.023205
v 140.471764 -93.100000 14.043185
v 140.420000 -93.100000 14.050000
v 140.420000 -90.100000 14.050000
v 140.471764 -90.100000 14.043185
v 140.520000 -90.100000 14.023205
v 140.561421 -90.100000 13.991421
v 140.593205 -90.100000 13.950000
v 140.613185 -90.100000 13.901764
v 140.613185 -92.100000 13.901764
v 140.613185 -91.100000 13.901764
v 140.593205 -92.100000 13.950000
v 140.593205 -91.100000 13.950000
v 140.561421 -92.100000 13.991421
v 140.561421 -91.100000 13.991421
v 140.520000 -92.100000 14.023205
v 140.520000 -91.100000 14.023205
v 140.471764 -92.100000 14.043185
v 140.471764 -91.100000 14.043185
v 131.820000 -93.100000 14.050000
v 131.820000 -90.100000 14.050000
v 131.768236 -93.100000 14.043185
v 131.720000 -93.100000 14.023205
v 131.678579 -93.100000 13.991421
v 131.646795 -93.100000 13.950000
v 131.626815 -93.100000 13.901764
v 131.620000 -93.100000 13.850000
v 131.620000 -90.100000 13.850000
v 131.626815 -90.100000 13.901764
v 131.646795 -90.100000 13.950000
v 131.678579 -90.100000 13.991421
v 131.720000 -90.100000 14.023205
v 131.768236 -90.100000 14.043185
v 131.768236 -92.100000 14.043185
v 131.768236 -91.100000 14.043185
v 131.720000 -92.100000 14.023205
v 131.720000 -91.100000 14.023205
v 131.678579 -92.100000 13.991421
v 131.678579 -91.100000 13.991421
v 131.646795 -92.100000 13.950000
v 131.646795 -91.100000 13.950000
v 131.626815 -92.100000 13.901764
v 131.626815 -91.100000 13.901764
v 103.000000 97.000000 19.742641
v 103.489189 97.000000 19.885004
v 103.991334 97.000000 19.971159
v 104.500000 97.000000 20.000000
v 104.500000 100.000000 20.000000
v 103.498656 100.000000 19.887176
v 102.547523 100.000000 19.554360
v 101.694296 100.000000 19.018242
v 100.981758 100.000000 18.305704
v 100.445640 100.000000 17.452477
v 100.112824 100.000000 16.501344
v 100.000000 100.000000 15.500000
v 100.000000 -93.100000 15.500000
v 100.112824 -93.100000 16.501344
v 100.445640 -93.100000 17.452477
v 100.981758 -93.100000 18.305704
v 101.694296 -93.100000 19.018242
v 102.547523 -93.100000 19.554360
v 103.498656 -93.100000 19.887176
v 104.500000 -93.100000 20.000000
v 104.500000 -90.100000 20.000000
v 103.991334 -90.100000 19.971159
v 103.489189 -90.100000 19.885004
v 103.000000 -90.100000 19.742641
v 102.547523 78.544444 19.554360
v 102.547523 57.088889 19.554360
v 102.547523 35.633333 19.554360
v 102.547523 14.177778 19.554360
v 102.547523 -7.277778 19.554360
v 102.547523 -28.733333 19.554360
v 102.547523 -50.188889 19.554360
v 102.547523 -71.644444 19.554360
v 101.694296 78.544444 19.018242
v 101.694296 57.088889 19.018242
v 101.694296 35.633333 19.018242
v 101.694296 14.177778 19.018242
v 101.694296 -7.277778 19.018242
v 101.694296 -28.733333 19.018242
v 101.694296 -50.188889 19.018242
v 101.694296 -71.644444 19.018242
v 100.981758 78.544444 18.305704
v 100.981758 57.088889 18.305704
v 100.981758 35.633333 18.305704
v 100.981758 14.177778 18.305704
v 100.981758 -7.277778 18.305704
v 100.981758 -28.733333 18.305704
v 100.981758 -50.188889 18.305704
v 100.981758 -71.644444 18.305704
v 100.445640 78.544444 17.452477
v 100.445640 57.088889 17.452477
v 100.445640 35.633333 17.452477
v 100.445640 14.177778 17.452477
v 100.445640 -7.277778 17.452477
v 100.445640 -28.733333 17.452477
v 100.445640 -50.188889 17.452477
v 100.445640 -71.644444 17.452477
v 100.112824 78.544444 16.501344
v 100.112824 57.088889 16.501344
v 100.112824 35.633333 16.501344
v 100.112824 14.177778 16.501344
v 100.112824 -7.277778 16.501344
v 100.112824 -28.733333 16.501344
v 100.112824 -50.188889 16.501344
v 100.112824 -71.644444 16.501344
v 103.000000 97.000000 3.000000
v 140.572469 97.000000 3.000000
v 147.273928 97.000000 9.708318
v 142.660210 97.000000 20.000000
v 103.000000 -90.100000 3.000000
v 142.660210 -90.100000 20.000000
v 145.947872 -93.100000 20.000000
v 145.947872 96.100000 20.000000
v 168.052128 96.100000 20.000000
v 168.052128 -93.100000 20.000000
v 208.500000 -93.100000 20.000000
v 208.500000 -90.100000 20.000000
v 171.273316 -90.100000 20.000000
v 171.273316 97.000000 20.000000
v 208.500000 97.000000 20.000000
v 208.500000 100.000000 20.000000
v 147.273928 -90.100000 9.708318
v 140.572469 -90.100000 3.000000
v 210.000000 -90.100000 19.742641
v 209.510811 -90.100000 19.885004
v 209.008666 -90.100000 19.971159
v 209.501344 -93.100000 19.887176
v 210.452477 -93.100000 19.554360
v 211.305704 -93.100000 19.018242
v 212.018242 -93.100000 18.305704
v 212.554360 -93.100000 17.452477
v 212.887176 -93.100000 16.501344
v 213.000000 -93.100000 15.500000
v 213.000000 100.000000 15.500000
v 212.887176 100.000000 16.501344
v 212.554360 100.000000 17.452477
v 212.018242 100.000000 18.305704
v 211.305704 100.000000 19.018242
v 210.452477 100.000000 19.554360
v 209.501344 100.000000 19.887176
v 209.008666 97.000000 19.971159
v 209.510811 97.000000 19.885004
v 210.000000 97.000000 19.742641
v 210.452477 -71.644444 19.554360
v 210.452477 -50.188889 19.554360
v 210.452477 -28.733333 19.554360
v 210.452477 -7.277778 19.554360
v 210.452477 14.177778 19.554360
v 210.452477 35.633333 19.554360
v 210.452477 57.088889 19.554360
v 210.452477 78.544444 19.554360
v 211.305704 -71.644444 19.018242
v 211.305704 -50.188889 19.018242
v 211.305704 -28.733333 19.018242
v 211.305704 -7.277778 19.018242
v 211.305704 14.177778 19.018242
v 211.305704 35.633333 19.018242
v 211.305704 57.088889 19.018242
v 211.305704 78.544444 19.018242
v 212.018242 -71.644444 18.305704
v 212.018242 -50.188889 18.305704
v 212.018242 -28.733333 18.305704
v 212.018242 -7.277778 18.305704
v 212.018242 14.177778 18.305704
v 212.018242 35.633333 18.305704
v 212.018242 57.088889 18.305704
v 212.018242 78.544444 18.305704
v 212.554360 -71.644444 17.452477
v 212.554360 -50.188889 17.452477
v 212.554360 -28.733333 17.452477
v 212.554360 -7.277778 17.452477
v 212.554360 14.177778 17.452477
v 212.554360 35.633333 17.452477
v 212.554360 57.088889 17.452477
v 212.554360 78.544444 17.452477
v 212.887176 -71.644444 16.501344
v 212.887176 -50.188889 16.501344
v 212.887176 -28.733333 16.501344
v 212.887176 -7.277778 16.501344
v 212.887176 14.177778 16.501344
v 212.887176 35.633333 16.501344
v 212.887176 57.088889 16.501344
v 212.887176 78.544444 16.501344
v 213.000000 -93.100000 0.000000
v 213.000000 100.000000 0.000000
v 100.000000 -93.100000 0.000000
v 163.682113 -93.100000 8.824000
v 171.898397 -93.100000 0.616117
v 165.530244 -93.100000 0.616117
v 157.345606 -93.100000 6.188620
v 149.016995 -93.100000 0.833686
v 142.648841 -93.100000 0.833686
v 150.856725 -93.100000 9.049970
v 210.000000 -90.100000 3.000000
v 173.756886 -90.100000 3.000000
v 167.190833 -90.100000 9.559341
v 173.756886 97.000000 3.000000
v 210.000000 97.000000 3.000000
v 167.190833 97.000000 9.559341
v 163.682113 96.100000 8.824000
v 171.898397 96.100000 0.616117
v 165.530244 96.100000 0.616117
v 157.345606 96.100000 6.188620
v 150.856725 96.100000 9.049970
v 142.648841 96.100000 0.833686
v 149.016995 96.100000 0.833686
v 100.000000 100.000000 0.000000
vt 5.490000 0.010472 0.000000
vt 5.590000 0.010472 0.000000
vt 5.490000 0.015708 0.000000
vt 5.690000 0.010472 0.000000
vt 5.790000 0.015708 0.000000
vt 5.790000 0.010472 0.000000
vt 5.790000 0.005236 0.000000
vt 5.690000 0.005236 0.000000
vt 5.790000 0.000000 0.000000
vt 5.690000 0.000000 0.000000
vt 5.790000 -0.005236 0.000000
vt 5.690000 -0.005236 0.000000
vt 5.790000 -0.010472 0.000000
vt 5.690000 -0.010472 0.000000
vt 5.790000 -0.015708 0.000000
vt 5.590000 -0.010472 0.000000
vt 5.490000 -0.015708 0.000000
vt 5.490000 -0.010472 0.000000
vt 5.490000 -0.005236 0.000000
vt 5.590000 -0.005236 0.000000
vt 5.490000 0.000000 0.000000
vt 5.590000 0.000000 0.000000
vt 5.490000 0.005236 0.000000
vt 5.590000 0.005236 0.000000
vt -1.080000 5.490000 0.000000
vt -0.020000 5.490000 0.000000
vt -1.080000 5.790000 0.000000
vt -0.020000 5.790000 0.000000
vt 5.490000 0.010472 0.000000
vt 5.590000 0.010472 0.000000
vt 5.490000 0.015708 0.000000
vt 5.690000 0.010472 0.000000
vt 5.790000 0.015708 0.000000
vt 5.790000 0.010472 0.000000
vt 5.790000 0.005236 0.000000
vt 5.690000 0.005236 0.000000
vt 5.790000 0.000000 0.000000
vt 5.690000 0.000000 0.000000
vt 5.790000 -0.005236 0.000000
vt 5.690000 -0.005236 0.000000
vt 5.790000 -0.010472 0.000000
vt 5.690000 -0.010472 0.000000
vt 5.790000 -0.015708 0.000000
vt 5.590000 -0.010472 0.000000
vt 5.490000 -0.015708 0.000000
vt 5.490000 -0.010472 0.000000
vt 5.490000 -0.005236 0.000000
vt 5.590000 -0.005236 0.000000
vt 5.490000 0.000000 0.000000
vt 5.590000 0.000000 0.000000
vt 5.490000 0.005236 0.000000
vt 5.590000 0.005236 0.000000
vt -0.020000 5.790000 0.000000
vt -0.880000 5.790000 0.000000
vt -0.020000 5.490000 0.000000
vt -0.880000 5.490000 0.000000
vt 5.490000 0.010472 0.000000
vt 5.590000 0.010472 0.000000
vt 5.490000 0.015708 0.000000
vt 5.690000 0.010472 0.000000
vt 5.790000 0.015708 0.000000
vt 5.790000 0.010472 0.000000
vt 5.790000 0.005236 0.000000
vt 5.690000 0.005236 0.000000
vt 5.790000 0.000000 0.000000
vt 5.690000 0.000000 0.000000
vt 5.790000 -0.005236 0.000000
vt 5.690000 -0.005236 0.000000
vt 5.790000 -0.010472 0.000000
vt 5.690000 -0.010472 0.000000
vt 5.790000 -0.015708 0.000000
vt 5.590000 -0.010472 0.000000
vt 5.490000 -0.015708 0.000000
vt 5.490000 -0.010472 0.000000
vt 5.490000 -0.005236 0.000000
vt 5.590000 -0.005236 0.000000
vt 5.490000 0.000000 0.000000
vt 5.590000 0.000000 0.000000
vt 5.490000 0.005236 0.000000
vt 5.590000 0.005236 0.000000
vt -0.880000 5.490000 0.000000
vt -0.020000 5.490000 0.000000
vt -0.880000 5.790000 0.000000
vt -0.020000 5.790000 0.000000
vt 5.490000 0.010472 0.000000
vt 5.590000 0.010472 0.000000
vt 5.490000 0.015708 0.000000
vt 5.690000 0.010472 0.000000
vt 5.790000 0.015708 0.000000
vt 5.790000 0.010472 0.000000
vt 5.790000 0.005236 0.000000
vt 5.690000 0.005236 0.000000
vt 5.790000 -0.000000 0.000000
vt 5.690000 -0.000000 0.000000
vt 5.790000 -0.005236 0.000000
vt 5.690000 -0.005236 0.000000
vt 5.790000 -0.010472 0.000000
vt 5.690000 -0.010472 0.000000
vt 5.790000 -0.015708 0.000000
vt 5.590000 -0.010472 0.000000
vt 5.490000 -0.015708 0.000000
vt 5.490000 -0.010472 0.000000
vt 5.490000 -0.005236 0.000000
vt 5.590000 -0.005236 0.000000
vt 5.490000 -0.000000 0.000000
vt 5.590000 -0.000000 0.000000
vt 5.490000 0.005236 0.000000
vt 5.590000 0.005236 0.000000
vt -0.020000 5.790000 0.000000
vt -1.080000 5.790000 0.000000
vt -0.020000 5.490000 0.000000
vt -1.080000 5.490000 0.000000
vt 4.527500 -0.251478 0.000000
vt 4.827500 -0.252449 0.000000
vt 4.527500 -0.200503 0.000000
vt 4.827500 -0.151470 0.000000
vt 2.681944 -0.151470 0.000000
vt 2.681944 -0.050490 0.000000
vt 0.536389 -0.050490 0.000000
vt 0.536389 0.050490 0.000000
vt -1.609167 0.050490 0.000000
vt -1.609167 0.151470 0.000000
vt -3.754722 0.151470 0.000000
vt -3.754722 0.252449 0.000000
vt -5.900278 0.252449 0.000000
vt -14.482500 0.353429 0.000000
vt -8.045833 0.252449 0.000000
vt -10.191389 0.252449 0.000000
vt -8.045833 0.151470 0.000000
vt -10.191389 0.151470 0.000000
vt -8.045833 0.050490 0.000000
vt -10.191389 0.050490 0.000000
vt -8.045833 -0.050490 0.000000
vt -10.191389 -0.050490 0.000000
vt -8.045833 -0.151470 0.000000
vt -10.191389 -0.151470 0.000000
vt -14.182500 -0.200503 0.000000
vt -12.336944 -0.151470 0.000000
vt -14.482500 -0.151470 0.000000
vt -14.482500 -0.050490 0.000000
vt -12.336944 -0.050490 0.000000
vt -14.482500 0.050490 0.000000
vt -12.336944 0.050490 0.000000
vt -14.482500 0.151470 0.000000
vt -12.336944 0.151470 0.000000
vt -14.482500 0.252449 0.000000
vt -12.336944 0.252449 0.000000
vt 4.527500 -0.302454 0.000000
vt 4.827500 -0.353429 0.000000
vt 4.527500 -0.353429 0.000000
vt 4.827500 -0.050490 0.000000
vt 2.681944 0.050490 0.000000
vt 0.536389 0.151470 0.000000
vt -1.609167 0.252449 0.000000
vt 4.827500 0.353429 0.000000
vt 4.827500 0.050490 0.000000
vt 2.681944 0.151470 0.000000
vt 0.536389 0.252449 0.000000
vt 4.827500 0.151470 0.000000
vt 2.681944 0.252449 0.000000
vt 4.827500 0.252449 0.000000
vt -14.482500 -0.252449 0.000000
vt -14.182500 -0.251478 0.000000
vt -14.182500 -0.302454 0.000000
vt -14.482500 -0.353429 0.000000
vt -14.182500 -0.353429 0.000000
vt -5.900278 -0.151470 0.000000
vt -3.754722 -0.151470 0.000000
vt -1.609167 -0.151470 0.000000
vt -3.754722 -0.050490 0.000000
vt -1.609167 -0.050490 0.000000
vt -3.754722 0.050490 0.000000
vt 0.536389 -0.151470 0.000000
vt -5.900278 -0.050490 0.000000
vt -5.900278 0.050490 0.000000
vt -5.900278 0.151470 0.000000
vt -10.900867 1.997116 0.000000
vt -10.951081 1.988500 0.000000
vt -10.850000 2.000000 0.000000
vt -11.000000 1.974264 0.000000
vt -11.000000 0.300000 0.000000
vt -7.242753 0.300000 0.000000
vt -6.572607 0.970832 0.000000
vt -7.033979 2.000000 0.000000
vt -0.300000 1.974264 0.000000
vt -19.010000 1.974264 0.000000
vt -0.300000 0.300000 0.000000
vt -19.010000 0.300000 0.000000
vt -5.200000 9.355000 0.000000
vt -1.383979 9.355000 0.000000
vt -5.200000 9.655000 0.000000
vt 5.200000 9.655000 0.000000
vt 1.477332 9.355000 0.000000
vt 5.200000 9.355000 0.000000
vt -1.055213 9.265000 0.000000
vt -1.383979 -9.355000 0.000000
vt -1.055213 -9.655000 0.000000
vt -5.200000 -9.655000 0.000000
vt -5.200000 -9.355000 0.000000
vt 1.155213 9.265000 0.000000
vt 1.477332 -9.355000 0.000000
vt 1.155213 -9.655000 0.000000
vt 5.200000 -9.655000 0.000000
vt 5.200000 -9.355000 0.000000
vt -3.162000 0.325000 0.000000
vt -0.300000 0.300000 0.000000
vt -3.162000 1.385000 0.000000
vt -0.300000 1.974264 0.000000
vt -0.450000 2.000000 0.000000
vt -0.348919 1.988500 0.000000
vt -0.399133 1.997116 0.000000
vt -3.162681 0.319824 0.000000
vt -3.164679 0.315000 0.000000
vt -3.167858 0.310858 0.000000
vt -3.172000 0.307679 0.000000
vt -3.176824 0.305681 0.000000
vt -3.182000 0.305000 0.000000
vt -4.057247 0.300000 0.000000
vt -4.042000 0.305000 0.000000
vt -4.047176 0.305681 0.000000
vt -4.052000 0.307679 0.000000
vt -4.056142 0.310858 0.000000
vt -4.059321 0.315000 0.000000
vt -4.061319 0.319824 0.000000
vt -4.727393 0.970832 0.000000
vt -4.062000 0.325000 0.000000
vt -4.062000 1.385000 0.000000
vt -4.061319 1.390176 0.000000
vt -4.059321 1.395000 0.000000
vt -4.266021 2.000000 0.000000
vt -4.056142 1.399142 0.000000
vt -4.052000 1.402321 0.000000
vt -4.047176 1.404319 0.000000
vt -4.042000 1.405000 0.000000
vt -3.182000 1.405000 0.000000
vt -3.176824 1.404319 0.000000
vt -3.172000 1.402321 0.000000
vt -3.167858 1.399142 0.000000
vt -3.164679 1.395000 0.000000
vt -3.162681 1.390176 0.000000
vt 4.527500 -0.251478 0.000000
vt 4.827500 -0.252449 0.000000
vt 4.527500 -0.200503 0.000000
vt 4.827500 -0.151470 0.000000
vt 2.681944 -0.151470 0.000000
vt 2.681944 -0.050490 0.000000
vt 0.536389 -0.050490 0.000000
vt 0.536389 0.050490 0.000000
vt -1.609167 0.050490 0.000000
vt -1.609167 0.151470 0.000000
vt -3.754722 0.151470 0.000000
vt -3.754722 0.252449 0.000000
vt -5.900278 0.252449 0.000000
vt -14.482500 0.353429 0.000000
vt -8.045833 0.252449 0.000000
vt -10.191389 0.252449 0.000000
vt -8.045833 0.151470 0.000000
vt -10.191389 0.151470 0.000000
vt -8.045833 0.050490 0.000000
vt -10.191389 0.050490 0.000000
vt -8.045833 -0.050490 0.000000
vt -10.191389 -0.050490 0.000000
vt -8.045833 -0.151470 0.000000
vt -10.191389 -0.151470 0.000000
vt -14.182500 -0.200503 0.000000
vt -12.336944 -0.151470 0.000000
vt -14.482500 -0.151470 0.000000
vt -14.482500 -0.050490 0.000000
vt -12.336944 -0.050490 0.000000
vt -14.482500 0.050490 0.000000
vt -12.336944 0.050490 0.000000
vt -14.482500 0.151470 0.000000
vt -12.336944 0.151470 0.000000
vt -14.482500 0.252449 0.000000
vt -12.336944 0.252449 0.000000
vt 4.527500 -0.302454 0.000000
vt 4.827500 -0.353429 0.000000
vt 4.527500 -0.353429 0.000000
vt 4.827500 -0.050490 0.000000
vt 2.681944 0.050490 0.000000
vt 0.536389 0.151470 0.000000
vt -1.609167 0.252449 0.000000
vt 4.827500 0.353429 0.000000
vt 4.827500 0.050490 0.000000
vt 2.681944 0.151470 0.000000
vt 0.536389 0.252449 0.000000
vt 4.827500 0.151470 0.000000
vt 2.681944 0.252449 0.000000
vt 4.827500 0.252449 0.000000
vt -14.482500 -0.252449 0.000000
vt -14.182500 -0.251478 0.000000
vt -14.182500 -0.302454 0.000000
vt -14.482500 -0.353429 0.000000
vt -14.182500 -0.353429 0.000000
vt -5.900278 -0.151470 0.000000
vt -3.754722 -0.151470 0.000000
vt -1.609167 -0.151470 0.000000
vt -3.754722 -0.050490 0.000000
vt -1.609167 -0.050490 0.000000
vt -3.754722 0.050490 0.000000
vt 0.536389 -0.151470 0.000000
vt -5.900278 -0.050490 0.000000
vt -5.900278 0.050490 0.000000
vt -5.900278 0.151470 0.000000
vt 19.310000 1.550000 0.000000
vt 0.000000 1.550000 0.000000
vt 19.310000 0.000000 0.000000
vt 0.000000 0.000000 0.000000
vt 3.162000 1.385000 0.000000
vt 0.000000 1.550000 0.000000
vt 3.162000 0.325000 0.000000
vt 0.000000 0.000000 0.000000
vt 3.162681 0.319824 0.000000
vt 3.164679 0.315000 0.000000
vt 3.167858 0.310858 0.000000
vt 3.172000 0.307679 0.000000
vt 3.176824 0.305681 0.000000
vt 3.182000 0.305000 0.000000
vt 4.264884 0.083369 0.000000
vt 4.042000 0.305000 0.000000
vt 4.047176 0.305681 0.000000
vt 4.052000 0.307679 0.000000
vt 4.056142 0.310858 0.000000
vt 4.059321 0.315000 0.000000
vt 4.061319 0.319824 0.000000
vt 4.062000 0.325000 0.000000
vt 5.085672 0.904997 0.000000
vt 4.062000 1.385000 0.000000
vt 4.061319 1.390176 0.000000
vt 4.059321 1.395000 0.000000
vt 4.594787 2.000000 0.000000
vt 4.056142 1.399142 0.000000
vt 4.052000 1.402321 0.000000
vt 4.047176 1.404319 0.000000
vt 4.042000 1.405000 0.000000
vt 3.182000 1.405000 0.000000
vt 0.450000 2.000000 0.000000
vt 0.098176 1.830570 0.000000
vt 0.169430 1.901824 0.000000
vt 0.254752 1.955436 0.000000
vt 0.349866 1.988718 0.000000
vt 3.162681 1.390176 0.000000
vt 3.164679 1.395000 0.000000
vt 3.167858 1.399142 0.000000
vt 3.172000 1.402321 0.000000
vt 3.176824 1.404319 0.000000
vt 0.011282 1.650134 0.000000
vt 0.044564 1.745248 0.000000
vt 6.553024 0.061612 0.000000
vt 11.300000 0.000000 0.000000
vt 7.189840 0.061612 0.000000
vt 6.368211 0.882400 0.000000
vt 11.300000 1.550000 0.000000
vt 6.805213 2.000000 0.000000
vt 11.288718 1.650134 0.000000
vt 11.255436 1.745248 0.000000
vt 11.201824 1.830570 0.000000
vt 10.850000 2.000000 0.000000
vt 11.130570 1.901824 0.000000
vt 11.045248 1.955436 0.000000
vt 10.950134 1.988718 0.000000
vt 5.734561 0.618862 0.000000
vt 4.901699 0.083369 0.000000
vt -10.900867 1.997116 0.000000
vt -10.951081 1.988500 0.000000
vt -10.850000 2.000000 0.000000
vt -11.000000 1.974264 0.000000
vt -11.000000 0.300000 0.000000
vt -7.375689 0.300000 0.000000
vt -6.719083 0.955934 0.000000
vt -7.127332 2.000000 0.000000
vt -1.592753 9.355000 0.000000
vt -5.350000 9.355000 0.000000
vt -1.592753 -9.355000 0.000000
vt -5.350000 -9.355000 0.000000
vt 1.334489 20.090000 0.000000
vt 0.206636 20.090000 0.000000
vt 1.334489 1.380000 0.000000
vt 0.206636 1.380000 0.000000
vt 0.006513 1.380000 0.000000
vt 0.954728 1.380000 0.000000
vt 0.006513 20.090000 0.000000
vt 0.954728 20.090000 0.000000
vt 1.725689 -9.355000 0.000000
vt 5.350000 -9.355000 0.000000
vt 1.725689 9.355000 0.000000
vt 5.350000 9.355000 0.000000
vt 1.003739 20.090000 0.000000
vt -0.117305 20.090000 0.000000
vt 1.003739 1.380000 0.000000
vt -0.117305 1.380000 0.000000
vt -0.300000 1.974264 0.000000
vt -19.010000 1.974264 0.000000
vt -0.300000 0.300000 0.000000
vt -19.010000 0.300000 0.000000
vt -0.300000 0.300000 0.000000
vt -0.300000 1.974264 0.000000
vt -0.450000 2.000000 0.000000
vt -0.348919 1.988500 0.000000
vt -0.399133 1.997116 0.000000
vt -4.172668 2.000000 0.000000
vt -4.580917 0.955934 0.000000
vt -3.924311 0.300000 0.000000
vt 1.124367 20.090000 0.000000
vt 0.196261 20.090000 0.000000
vt 1.124367 1.380000 0.000000
vt 0.196261 1.380000 0.000000
vt -1.200000 1.080000 0.000000
vt -0.000000 1.080000 0.000000
vt -1.200000 20.000000 0.000000
vt -0.000000 20.000000 0.000000
vt -1.161364 1.080000 0.000000
vt -0.000000 1.080000 0.000000
vt -1.161364 20.000000 0.000000
vt -0.000000 20.000000 0.000000
vt -0.636815 1.080000 0.000000
vt -0.000000 1.080000 0.000000
vt -0.636815 20.000000 0.000000
vt -0.000000 20.000000 0.000000
vt -0.990157 1.080000 0.000000
vt -0.000000 1.080000 0.000000
vt -0.990157 20.000000 0.000000
vt -0.000000 20.000000 0.000000
vt -1.200000 1.080000 0.000000
vt -0.000000 1.080000 0.000000
vt -1.200000 20.000000 0.000000
vt -0.000000 20.000000 0.000000
vt -1.161364 1.080000 0.000000
vt 0.000000 1.080000 0.000000
vt -1.161364 20.000000 0.000000
vt 0.000000 20.000000 0.000000
vt -0.636815 1.080000 0.000000
vt -0.000000 1.080000 0.000000
vt -0.636815 20.000000 0.000000
vt -0.000000 20.000000 0.000000
vt -0.990157 1.080000 0.000000
vt -0.000000 1.080000 0.000000
vt -0.990157 20.000000 0.000000
vt -0.000000 20.000000 0.000000
vt 0.947437 -1.462478 0.000000
vt 0.947437 -0.825662 0.000000
vt 0.125809 -0.641689 0.000000
vt 0.411944 0.007199 0.000000
vt 0.148406 0.640849 0.000000
vt 0.969194 0.825662 0.000000
vt 0.969194 1.462478 0.000000
vt -0.969194 1.077851 0.000000
vt -0.969194 -1.132575 0.000000
vt 19.310000 1.550000 0.000000
vt -0.000000 1.550000 0.000000
vt 19.310000 0.000000 0.000000
vt -0.000000 0.000000 0.000000
vt 11.288718 1.650134 0.000000
vt 0.011282 1.650134 0.000000
vt 11.300000 1.550000 0.000000
vt -0.000000 1.550000 0.000000
vt 11.300000 0.000000 0.000000
vt -0.000000 0.000000 0.000000
vt 11.255436 1.745248 0.000000
vt 10.850000 2.000000 0.000000
vt 0.450000 2.000000 0.000000
vt 0.044564 1.745248 0.000000
vt 0.098176 1.830570 0.000000
vt 0.169430 1.901824 0.000000
vt 0.254752 1.955436 0.000000
vt 0.349866 1.988718 0.000000
vt 11.201824 1.830570 0.000000
vt 11.130570 1.901824 0.000000
vt 11.045248 1.955436 0.000000
vt 10.950134 1.988718 0.000000
vt -5.650000 -9.655000 0.000000
vt 5.650000 -9.655000 0.000000
vt -5.650000 9.655000 0.000000
vt 5.650000 9.655000 0.000000
vn -0.025882 0.000000 0.096593
vn -0.025882 0.000000 0.096593
vn 0.000000 0.000000 0.100000
vn -0.025882 0.000000 0.096593
vn 0.000000 0.000000 0.100000
vn -0.025882 0.000000 0.096593
vn -0.050000 0.000000 0.086603
vn -0.050000 0.000000 0.086603
vn -0.070711 0.000000 0.070711
vn -0.070711 0.000000 0.070711
vn -0.086603 0.000000 0.050000
vn -0.086603 0.000000 0.050000
vn -0.096593 0.000000 0.025882
vn -0.096593 0.000000 0.025882
vn -0.100000 0.000000 -0.000000
vn -0.096593 0.000000 0.025882
vn -0.100000 0.000000 -0.000000
vn -0.096593 0.000000 0.025882
vn -0.086603 0.000000 0.050000
vn -0.086603 0.000000 0.050000
vn -0.070711 0.000000 0.070711
vn -0.070711 0.000000 0.070711
vn -0.050000 0.000000 0.086603
vn -0.050000 0.000000 0.086603
vn -0.100000 0.000000 0.000000
vn -0.100000 0.000000 0.000000
vn 0.096593 -0.000000 0.025882
vn 0.096593 -0.000000 0.025882
vn 0.100000 0.000000 -0.000000
vn 0.096593 -0.000000 0.025882
vn 0.100000 0.000000 -0.000000
vn 0.096593 -0.000000 0.025882
vn 0.086603 -0.000000 0.050000
vn 0.086603 -0.000000 0.050000
vn 0.070711 -0.000000 0.070711
vn 0.070711 -0.000000 0.070711
vn 0.050000 -0.000000 0.086603
vn 0.050000 -0.000000 0.086603
vn 0.025882 -0.000000 0.096593
vn 0.025882 -0.000000 0.096593
vn 0.000000 -0.000000 0.100000
vn 0.025882 -0.000000 0.096593
vn 0.000000 -0.000000 0.100000
vn 0.025882 -0.000000 0.096593
vn 0.050000 -0.000000 0.086603
vn 0.050000 -0.000000 0.086603
vn 0.070711 -0.000000 0.070711
vn 0.070711 -0.000000 0.070711
vn 0.086603 -0.000000 0.050000
vn 0.086603 -0.000000 0.050000
vn -0.096593 0.000000 -0.025882
vn -0.096593 0.000000 -0.025882
vn -0.096593 0.000000 -0.025882
vn -0.096593 0.000000 -0.025882
vn -0.086603 0.000000 -0.050000
vn -0.086603 0.000000 -0.050000
vn -0.070711 0.000000 -0.070711
vn -0.070711 0.000000 -0.070711
vn -0.050000 0.000000 -0.086603
vn -0.050000 0.000000 -0.086603
vn -0.025882 0.000000 -0.096593
vn -0.025882 0.000000 -0.096593
vn 0.000000 0.000000 -0.100000
vn -0.025882 0.000000 -0.096593
vn 0.000000 0.000000 -0.100000
vn -0.025882 0.000000 -0.096593
vn -0.050000 0.000000 -0.086603
vn -0.050000 0.000000 -0.086603
vn -0.070711 0.000000 -0.070711
vn -0.070711 0.000000 -0.070711
vn -0.086603 0.000000 -0.050000
vn -0.086603 0.000000 -0.050000
vn 0.000000 0.000000 -0.100000
vn 0.000000 0.000000 -0.100000
vn 0.025882 0.000000 -0.096593
vn 0.025882 0.000000 -0.096593
vn 0.025882 0.000000 -0.096593
vn 0.025882 0.000000 -0.096593
vn 0.050000 0.000000 -0.086603
vn 0.050000 0.000000 -0.086603
vn 0.070711 0.000000 -0.070711
vn 0.070711 0.000000 -0.070711
vn 0.086603 0.000000 -0.050000
vn 0.086603 0.000000 -0.050000
vn 0.096593 0.000000 -0.025882
vn 0.096593 0.000000 -0.025882
vn 0.100000 -0.000000 0.000000
vn 0.096593 0.000000 -0.025882
vn 0.100000 -0.000000 0.000000
vn 0.096593 0.000000 -0.025882
vn 0.086603 0.000000 -0.050000
vn 0.086603 0.000000 -0.050000
vn 0.070711 0.000000 -0.070711
vn 0.070711 0.000000 -0.070711
vn 0.050000 0.000000 -0.086603
vn 0.050000 0.000000 -0.086603
vn -0.022462 0.000000 0.097445
vn -0.022252 0.000000 0.097493
vn -0.033333 0.000000 0.094281
vn -0.043388 0.000000 0.090097
vn -0.043388 0.000000 0.090097
vn -0.062349 0.000000 0.078183
vn -0.062349 0.000000 0.078183
vn -0.078183 0.000000 0.062349
vn -0.078183 0.000000 0.062349
vn -0.090097 0.000000 0.043388
vn -0.090097 0.000000 0.043388
vn -0.097493 0.000000 0.022252
vn -0.097493 0.000000 0.022252
vn -0.100000 0.000000 -0.000000
vn -0.097493 0.000000 0.022252
vn -0.097493 0.000000 0.022252
vn -0.090097 0.000000 0.043388
vn -0.090097 0.000000 0.043388
vn -0.078183 0.000000 0.062349
vn -0.078183 0.000000 0.062349
vn -0.062349 0.000000 0.078183
vn -0.062349 0.000000 0.078183
vn -0.043388 0.000000 0.090097
vn -0.043388 0.000000 0.090097
vn -0.033333 0.000000 0.094281
vn -0.043388 0.000000 0.090097
vn -0.043388 0.000000 0.090097
vn -0.062349 0.000000 0.078183
vn -0.062349 0.000000 0.078183
vn -0.078183 0.000000 0.062349
vn -0.078183 0.000000 0.062349
vn -0.090097 0.000000 0.043388
vn -0.090097 0.000000 0.043388
vn -0.097493 0.000000 0.022252
vn -0.097493 0.000000 0.022252
vn -0.011304 0.000000 0.099359
vn 0.000000 0.000000 0.100000
vn 0.000000 0.000000 0.100000
vn -0.062349 0.000000 0.078183
vn -0.078183 0.000000 0.062349
vn -0.090097 0.000000 0.043388
vn -0.097493 0.000000 0.022252
vn -0.100000 0.000000 -0.000000
vn -0.078183 0.000000 0.062349
vn -0.090097 0.000000 0.043388
vn -0.097493 0.000000 0.022252
vn -0.090097 0.000000 0.043388
vn -0.097493 0.000000 0.022252
vn -0.097493 0.000000 0.022252
vn -0.022252 0.000000 0.097493
vn -0.022462 0.000000 0.097445
vn -0.011304 0.000000 0.099359
vn 0.000000 0.000000 0.100000
vn 0.000000 0.000000 0.100000
vn -0.043388 0.000000 0.090097
vn -0.043388 0.000000 0.090097
vn -0.043388 0.000000 0.090097
vn -0.062349 0.000000 0.078183
vn -0.062349 0.000000 0.078183
vn -0.078183 0.000000 0.062349
vn -0.043388 0.000000 0.090097
vn -0.062349 0.000000 0.078183
vn -0.078183 0.000000 0.062349
vn -0.090097 0.000000 0.043388
vn 0.000000 -0.100000 0.000000
vn 0.000000 -0.100000 0.000000
vn 0.000000 -0.100000 0.000000
vn 0.000000 -0.100000 0.000000
vn 0.000000 -0.100000 0.000000
vn 0.000000 -0.100000 0.000000
vn 0.000000 -0.100000 0.000000
vn 0.000000 -0.100000 0.000000
vn 0.100000 0.000000 0.000000
vn 0.100000 0.000000 0.000000
vn 0.100000 0.000000 0.000000
vn 0.100000 0.000000 0.000000
vn 0.000000 0.000000 0.100000
vn 0.000000 0.000000 0.100000
vn 0.000000 0.000000 0.100000
vn 0.000000 0.000000 0.100000
vn 0.000000 0.000000 0.100000
vn 0.000000 0.000000 0.100000
vn 0.000000 0.000000 0.100000
vn 0.000000 0.000000 0.100000
vn 0.000000 0.000000 0.100000
vn 0.000000 0.000000 0.100000
vn 0.000000 0.000000 0.100000
vn 0.000000 0.000000 0.100000
vn -0.000000 0.100000 -0.000000
vn -0.000000 0.100000 -0.000000
vn -0.000000 0.100000 -0.000000
vn -0.000000 0.100000 -0.000000
vn -0.000000 0.100000 -0.000000
vn -0.000000 0.100000 -0.000000
vn -0.000000 0.100000 -0.000000
vn -0.000000 0.100000 -0.000000
vn -0.000000 0.100000 -0.000000
vn -0.000000 0.100000 -0.000000
vn -0.000000 0.100000 -0.000000
vn -0.000000 0.100000 -0.000000
vn -0.000000 0.100000 -0.000000
vn -0.000000 0.100000 -0.000000
vn -0.000000 0.100000 -0.000000
vn -0.000000 0.100000 -0.000000
vn -0.000000 0.100000 -0.000000
vn -0.000000 0.100000 -0.000000
vn -0.000000 0.100000 -0.000000
vn -0.000000 0.100000 -0.000000
vn -0.000000 0.100000 -0.000000
vn -0.000000 0.100000 -0.000000
vn -0.000000 0.100000 -0.000000
vn -0.000000 0.100000 -0.000000
vn -0.000000 0.100000 -0.000000
vn -0.000000 0.100000 -0.000000
vn -0.000000 0.100000 -0.000000
vn -0.000000 0.100000 -0.000000
vn -0.000000 0.100000 -0.000000
vn -0.000000 0.100000 -0.000000
vn -0.000000 0.100000 -0.000000
vn -0.000000 0.100000 -0.000000
vn -0.000000 0.100000 -0.000000
vn -0.000000 0.100000 -0.000000
vn -0.000000 0.100000 -0.000000
vn -0.000000 0.100000 -0.000000
vn 0.022462 -0.000000 0.097445
vn 0.022252 -0.000000 0.097493
vn 0.033333 -0.000000 0.094281
vn 0.043388 -0.000000 0.090097
vn 0.043388 -0.000000 0.090097
vn 0.062349 -0.000000 0.078183
vn 0.062349 -0.000000 0.078183
vn 0.078183 -0.000000 0.062349
vn 0.078183 -0.000000 0.062349
vn 0.090097 -0.000000 0.043388
vn 0.090097 -0.000000 0.043388
vn 0.097493 -0.000000 0.022252
vn 0.097493 -0.000000 0.022252
vn 0.100000 -0.000000 0.000000
vn 0.097493 -0.000000 0.022252
vn 0.097493 -0.000000 0.022252
vn 0.090097 -0.000000 0.043388
vn 0.090097 -0.000000 0.043388
vn 0.078183 -0.000000 0.062349
vn 0.078183 -0.000000 0.062349
vn 0.062349 -0.000000 0.078183
vn 0.062349 -0.000000 0.078183
vn 0.043388 -0.000000 0.090097
vn 0.043388 -0.000000 0.090097
vn 0.033333 -0.000000 0.094281
vn 0.043388 -0.000000 0.090097
vn 0.043388 -0.000000 0.090097
vn 0.062349 -0.000000 0.078183
vn 0.062349 -0.000000 0.078183
vn 0.078183 -0.000000 0.062349
vn 0.078183 -0.000000 0.062349
vn 0.090097 -0.000000 0.043388
vn 0.090097 -0.000000 0.043388
vn 0.097493 -0.000000 0.022252
vn 0.097493 -0.000000 0.022252
vn 0.011304 -0.000000 0.099359
vn 0.062349 -0.000000 0.078183
vn 0.078183 -0.000000 0.062349
vn 0.090097 -0.000000 0.043388
vn 0.097493 -0.000000 0.022252
vn 0.100000 -0.000000 0.000000
vn 0.078183 -0.000000 0.062349
vn 0.090097 -0.000000 0.043388
vn 0.097493 -0.000000 0.022252
vn 0.090097 -0.000000 0.043388
vn 0.097493 -0.000000 0.022252
vn 0.097493 -0.000000 0.022252
vn 0.022252 -0.000000 0.097493
vn 0.022462 -0.000000 0.097445
vn 0.011304 -0.000000 0.099359
vn 0.043388 -0.000000 0.090097
vn 0.043388 -0.000000 0.090097
vn 0.043388 -0.000000 0.090097
vn 0.062349 -0.000000 0.078183
vn 0.062349 -0.000000 0.078183
vn 0.078183 -0.000000 0.062349
vn 0.043388 -0.000000 0.090097
vn 0.062349 -0.000000 0.078183
vn 0.078183 -0.000000 0.062349
vn 0.090097 -0.000000 0.043388
vn 0.100000 0.000000 0.000000
vn 0.100000 0.000000 0.000000
vn 0.000000 -0.100000 0.000000
vn 0.000000 -0.100000 0.000000
vn 0.000000 -0.100000 0.000000
vn 0.000000 -0.100000 0.000000
vn 0.000000 -0.100000 0.000000
vn 0.000000 -0.100000 0.000000
vn 0.000000 -0.100000 0.000000
vn 0.000000 -0.100000 0.000000
vn 0.000000 -0.100000 0.000000
vn 0.000000 -0.100000 0.000000
vn 0.000000 -0.100000 0.000000
vn 0.000000 -0.100000 0.000000
vn 0.000000 -0.100000 0.000000
vn 0.000000 -0.100000 0.000000
vn 0.000000 -0.100000 0.000000
vn 0.000000 -0.100000 0.000000
vn 0.000000 -0.100000 0.000000
vn 0.000000 -0.100000 0.000000
vn 0.000000 -0.100000 0.000000
vn 0.000000 -0.100000 0.000000
vn 0.000000 -0.100000 0.000000
vn 0.000000 -0.100000 0.000000
vn 0.000000 -0.100000 0.000000
vn 0.000000 -0.100000 0.000000
vn 0.000000 -0.100000 0.000000
vn 0.000000 -0.100000 0.000000
vn 0.000000 -0.100000 0.000000
vn 0.000000 -0.100000 0.000000
vn 0.000000 -0.100000 0.000000
vn 0.000000 -0.100000 0.000000
vn 0.000000 -0.100000 0.000000
vn 0.000000 -0.100000 0.000000
vn 0.000000 -0.100000 0.000000
vn 0.000000 -0.100000 0.000000
vn 0.000000 -0.100000 0.000000
vn 0.000000 -0.100000 0.000000
vn 0.000000 -0.100000 0.000000
vn 0.000000 -0.100000 0.000000
vn 0.000000 -0.100000 0.000000
vn 0.000000 -0.100000 0.000000
vn 0.000000 -0.100000 0.000000
vn 0.000000 -0.100000 0.000000
vn 0.000000 -0.100000 0.000000
vn 0.000000 -0.100000 0.000000
vn 0.000000 -0.100000 0.000000
vn 0.000000 -0.100000 0.000000
vn 0.000000 -0.100000 0.000000
vn 0.000000 -0.100000 0.000000
vn 0.000000 -0.100000 0.000000
vn 0.000000 -0.100000 0.000000
vn 0.000000 -0.100000 0.000000
vn 0.000000 -0.100000 0.000000
vn 0.000000 -0.100000 0.000000
vn 0.000000 -0.100000 0.000000
vn 0.000000 -0.100000 0.000000
vn -0.000000 0.100000 -0.000000
vn -0.000000 0.100000 -0.000000
vn -0.000000 0.100000 -0.000000
vn -0.000000 0.100000 -0.000000
vn -0.000000 0.100000 -0.000000
vn -0.000000 0.100000 -0.000000
vn -0.000000 0.100000 -0.000000
vn -0.000000 0.100000 -0.000000
vn 0.000000 -0.000000 0.100000
vn 0.000000 -0.000000 0.100000
vn 0.000000 -0.000000 0.100000
vn 0.000000 -0.000000 0.100000
vn -0.091250 0.000000 -0.040907
vn -0.091250 0.000000 -0.040907
vn -0.091250 0.000000 -0.040907
vn -0.091250 0.000000 -0.040907
vn -0.070747 0.000000 0.070675
vn -0.070747 0.000000 0.070675
vn -0.070747 0.000000 0.070675
vn -0.070747 0.000000 0.070675
vn 0.000000 -0.000000 0.100000
vn 0.000000 -0.000000 0.100000
vn 0.000000 -0.000000 0.100000
vn 0.000000 -0.000000 0.100000
vn 0.093133 0.000000 -0.036417
vn 0.093133 0.000000 -0.036417
vn 0.093133 0.000000 -0.036417
vn 0.093133 0.000000 -0.036417
vn -0.100000 0.000000 0.000000
vn -0.100000 0.000000 0.000000
vn -0.100000 0.000000 0.000000
vn -0.100000 0.000000 0.000000
vn 0.000000 -0.100000 0.000000
vn 0.000000 -0.100000 0.000000
vn 0.000000 -0.100000 0.000000
vn 0.000000 -0.100000 0.000000
vn 0.000000 -0.100000 0.000000
vn 0.000000 -0.100000 0.000000
vn 0.000000 -0.100000 0.000000
vn 0.000000 -0.100000 0.000000
vn 0.070675 -0.000000 0.070747
vn 0.070675 -0.000000 0.070747
vn 0.070675 -0.000000 0.070747
vn 0.070675 -0.000000 0.070747
vn -0.093133 0.000000 0.036417
vn -0.093133 0.000000 0.036417
vn -0.093133 0.000000 0.036417
vn -0.093133 0.000000 0.036417
vn -0.070675 0.000000 -0.070747
vn -0.070675 0.000000 -0.070747
vn -0.070675 0.000000 -0.070747
vn -0.070675 0.000000 -0.070747
vn 0.000000 0.000000 0.100000
vn 0.000000 0.000000 0.100000
vn 0.000000 0.000000 0.100000
vn 0.000000 0.000000 0.100000
vn 0.056279 -0.000000 0.082660
vn 0.056279 -0.000000 0.082660
vn 0.056279 -0.000000 0.082660
vn 0.056279 -0.000000 0.082660
vn 0.091250 -0.000000 0.040907
vn 0.091250 -0.000000 0.040907
vn 0.091250 -0.000000 0.040907
vn 0.091250 -0.000000 0.040907
vn 0.070747 0.000000 -0.070675
vn 0.070747 0.000000 -0.070675
vn 0.070747 0.000000 -0.070675
vn 0.070747 0.000000 -0.070675
vn 0.000000 0.000000 0.100000
vn 0.000000 0.000000 0.100000
vn 0.000000 0.000000 0.100000
vn 0.000000 0.000000 0.100000
vn -0.054082 0.000000 0.084114
vn -0.054082 0.000000 0.084114
vn -0.054082 0.000000 0.084114
vn -0.054082 0.000000 0.084114
vn 0.000000 -0.100000 0.000000
vn 0.000000 -0.100000 0.000000
vn 0.000000 -0.100000 0.000000
vn 0.000000 -0.100000 0.000000
vn 0.000000 -0.100000 0.000000
vn 0.000000 -0.100000 0.000000
vn 0.000000 -0.100000 0.000000
vn 0.000000 -0.100000 0.000000
vn 0.000000 -0.100000 0.000000
vn -0.100000 0.000000 0.000000
vn -0.100000 0.000000 0.000000
vn 0.000000 0.100000 0.000000
vn 0.000000 0.100000 0.000000
vn 0.000000 0.100000 0.000000
vn 0.000000 0.100000 0.000000
vn 0.000000 0.100000 0.000000
vn 0.000000 0.100000 0.000000
vn 0.000000 0.100000 0.000000
vn 0.000000 0.100000 0.000000
vn 0.000000 0.100000 0.000000
vn 0.000000 0.100000 0.000000
vn 0.000000 0.100000 0.000000
vn 0.000000 0.100000 0.000000
vn 0.000000 0.100000 0.000000
vn 0.000000 0.100000 0.000000
vn 0.000000 0.100000 0.000000
vn 0.000000 0.100000 0.000000
vn 0.000000 0.100000 0.000000
vn 0.000000 0.100000 0.000000
vn -0.000000 0.000000 -0.100000
vn -0.000000 0.000000 -0.100000
vn -0.000000 0.000000 -0.100000
vn -0.000000 0.000000 -0.100000
usemtl Aço_-_Acetinado
f 2/1/1 15/2/2 1/3/3
f 1/3/3 15/2/2 16/4/4
f 1/3/3 16/4/4 14/5/5
f 14/5/5 16/4/4 13/6/6
f 13/6/6 16/4/4 12/7/7
f 12/7/7 16/4/4 18/8/8
f 12/7/7 18/8/8 11/9/9
f 11/9/9 18/8/8 20/10/10
f 11/9/9 20/10/10 10/11/11
f 10/11/11 20/10/10 22/12/12
f 10/11/11 22/12/12 9/13/13
f 9/13/13 22/12/12 24/14/14
f 9/13/13 24/14/14 8/15/15
f 8/15/15 24/14/14 23/16/16
f 8/15/15 23/16/16 7/17/17
f 7/17/17 23/16/16 6/18/18
f 6/18/18 23/16/16 5/19/19
f 5/19/19 23/16/16 21/20/20
f 5/19/19 21/20/20 4/21/21
f 4/21/21 21/20/20 19/22/22
f 4/21/21 19/22/22 3/23/23
f 3/23/23 19/22/22 17/24/24
f 3/23/23 17/24/24 2/1/1
f 2/1/1 17/24/24 15/2/2
f 18/8/8 16/4/4 15/2/2
f 18/8/8 15/2/2 17/24/24
f 20/10/10 18/8/8 17/24/24
f 20/10/10 17/24/24 19/22/22
f 22/12/12 20/10/10 19/22/22
f 22/12/12 19/22/22 21/20/20
f 24/14/14 22/12/12 21/20/20
f 24/14/14 21/20/20 23/16/16
f 7/25/17 25/26/25 8/27/15
f 8/27/15 25/26/25 26/28/26
f 28/29/27 41/30/28 27/31/29
f 27/31/29 41/30/28 42/32/30
f 27/31/29 42/32/30 40/33/31
f 40/33/31 42/32/30 39/34/32
f 39/34/32 42/32/30 38/35/33
f 38/35/33 42/32/30 44/36/34
f 38/35/33 44/36/34 37/37/35
f 37/37/35 44/36/34 46/38/36
f 37/37/35 46/38/36 36/39/37
f 36/39/37 46/38/36 48/40/38
f 36/39/37 48/40/38 35/41/39
f 35/41/39 48/40/38 50/42/40
f 35/41/39 50/42/40 34/43/41
f 34/43/41 50/42/40 49/44/42
f 34/43/41 49/44/42 33/45/43
f 33/45/43 49/44/42 32/46/44
f 32/46/44 49/44/42 31/47/45
f 31/47/45 49/44/42 47/48/46
f 31/47/45 47/48/46 30/49/47
f 30/49/47 47/48/46 45/50/48
f 30/49/47 45/50/48 29/51/49
f 29/51/49 45/50/48 43/52/50
f 29/51/49 43/52/50 28/29/27
f 28/29/27 43/52/50 41/30/28
f 44/36/34 42/32/30 41/30/28
f 44/36/34 41/30/28 43/52/50
f 46/38/36 44/36/34 43/52/50
f 46/38/36 43/52/50 45/50/48
f 48/40/38 46/38/36 45/50/48
f 48/40/38 45/50/48 47/48/46
f 50/42/40 48/40/38 47/48/46
f 50/42/40 47/48/46 49/44/42
f 14/53/5 34/54/41 1/55/3
f 1/55/3 34/54/41 33/56/43
f 51/57/51 63/58/52 25/59/25
f 25/59/25 63/58/52 64/60/53
f 25/59/25 64/60/53 26/61/26
f 26/61/26 64/60/53 62/62/54
f 62/62/54 64/60/53 61/63/55
f 61/63/55 64/60/53 66/64/56
f 61/63/55 66/64/56 60/65/57
f 60/65/57 66/64/56 68/66/58
f 60/65/57 68/66/58 59/67/59
f 59/67/59 68/66/58 70/68/60
f 59/67/59 70/68/60 58/69/61
f 58/69/61 70/68/60 72/70/62
f 58/69/61 72/70/62 57/71/63
f 57/71/63 72/70/62 71/72/64
f 57/71/63 71/72/64 56/73/65
f 56/73/65 71/72/64 55/74/66
f 55/74/66 71/72/64 54/75/67
f 54/75/67 71/72/64 69/76/68
f 54/75/67 69/76/68 53/77/69
f 53/77/69 69/76/68 67/78/70
f 53/77/69 67/78/70 52/79/71
f 52/79/71 67/78/70 65/80/72
f 52/79/71 65/80/72 51/57/51
f 51/57/51 65/80/72 63/58/52
f 66/64/56 64/60/53 63/58/52
f 66/64/56 63/58/52 65/80/72
f 68/66/58 66/64/56 65/80/72
f 68/66/58 65/80/72 67/78/70
f 70/68/60 68/66/58 67/78/70
f 70/68/60 67/78/70 69/76/68
f 72/70/62 70/68/60 69/76/68
f 72/70/62 69/76/68 71/72/64
f 56/81/65 73/82/73 57/83/63
f 57/83/63 73/82/73 74/84/74
f 75/85/75 87/86/76 73/87/73
f 73/87/73 87/86/76 88/88/77
f 73/87/73 88/88/77 74/89/74
f 74/89/74 88/88/77 86/90/78
f 86/90/78 88/88/77 85/91/79
f 85/91/79 88/88/77 90/92/80
f 85/91/79 90/92/80 84/93/81
f 84/93/81 90/92/80 92/94/82
f 84/93/81 92/94/82 83/95/83
f 83/95/83 92/94/82 94/96/84
f 83/95/83 94/96/84 82/97/85
f 82/97/85 94/96/84 96/98/86
f 82/97/85 96/98/86 81/99/87
f 81/99/87 96/98/86 95/100/88
f 81/99/87 95/100/88 80/101/89
f 80/101/89 95/100/88 79/102/90
f 79/102/90 95/100/88 78/103/91
f 78/103/91 95/100/88 93/104/92
f 78/103/91 93/104/92 77/105/93
f 77/105/93 93/104/92 91/106/94
f 77/105/93 91/106/94 76/107/95
f 76/107/95 91/106/94 89/108/96
f 76/107/95 89/108/96 75/85/75
f 75/85/75 89/108/96 87/86/76
f 90/92/80 88/88/77 87/86/76
f 90/92/80 87/86/76 89/108/96
f 92/94/82 90/92/80 89/108/96
f 92/94/82 89/108/96 91/106/94
f 94/96/84 92/94/82 91/106/94
f 94/96/84 91/106/94 93/104/92
f 96/98/86 94/96/84 93/104/92
f 96/98/86 93/104/92 95/100/88
f 40/109/31 81/110/87 27/111/29
f 27/111/29 81/110/87 80/112/89
f 98/113/97 102/114/98 97/115/99
f 97/115/99 102/114/98 103/116/100
f 97/115/99 103/116/100 121/117/101
f 121/117/101 103/116/100 129/118/102
f 121/117/101 129/118/102 130/119/103
f 130/119/103 129/118/102 138/120/104
f 130/119/103 138/120/104 139/121/105
f 139/121/105 138/120/104 147/122/106
f 139/121/105 147/122/106 148/123/107
f 148/123/107 147/122/106 156/124/108
f 148/123/107 156/124/108 157/125/109
f 157/125/109 156/124/108 109/126/110
f 157/125/109 109/126/110 158/127/111
f 158/127/111 109/126/110 159/128/112
f 158/127/111 159/128/112 150/129/113
f 150/129/113 159/128/112 151/130/114
f 150/129/113 151/130/114 142/131/115
f 142/131/115 151/130/114 143/132/116
f 142/131/115 143/132/116 134/133/117
f 134/133/117 143/132/116 135/134/118
f 134/133/117 135/134/118 126/135/119
f 126/135/119 135/134/118 127/136/120
f 126/135/119 127/136/120 120/137/121
f 120/137/121 127/136/120 128/138/122
f 120/137/121 128/138/122 114/139/123
f 114/139/123 128/138/122 113/140/124
f 113/140/124 128/138/122 136/141/125
f 113/140/124 136/141/125 112/142/126
f 112/142/126 136/141/125 144/143/127
f 112/142/126 144/143/127 111/144/128
f 111/144/128 144/143/127 152/145/129
f 111/144/128 152/145/129 110/146/130
f 110/146/130 152/145/129 160/147/131
f 110/146/130 160/147/131 109/126/110
f 109/126/110 160/147/131 159/128/112
f 98/113/97 99/148/132 102/114/98
f 102/114/98 99/148/132 101/149/133
f 101/149/133 99/148/132 100/150/134
f 103/116/100 104/151/135 129/118/102
f 129/118/102 104/151/135 137/152/136
f 129/118/102 137/152/136 138/120/104
f 138/120/104 137/152/136 146/153/137
f 138/120/104 146/153/137 147/122/106
f 147/122/106 146/153/137 155/154/138
f 147/122/106 155/154/138 156/124/108
f 156/124/108 155/154/138 108/155/139
f 156/124/108 108/155/139 109/126/110
f 104/151/135 105/156/140 137/152/136
f 137/152/136 105/156/140 145/157/141
f 137/152/136 145/157/141 146/153/137
f 146/153/137 145/157/141 154/158/142
f 146/153/137 154/158/142 155/154/138
f 155/154/138 154/158/142 108/155/139
f 105/156/140 106/159/143 145/157/141
f 145/157/141 106/159/143 153/160/144
f 145/157/141 153/160/144 154/158/142
f 154/158/142 153/160/144 108/155/139
f 106/159/143 107/161/145 153/160/144
f 153/160/144 107/161/145 108/155/139
f 114/139/123 115/162/146 120/137/121
f 120/137/121 115/162/146 119/163/147
f 119/163/147 115/162/146 118/164/148
f 118/164/148 115/162/146 116/165/149
f 118/164/148 116/165/149 117/166/150
f 126/135/119 120/137/121 125/167/151
f 125/167/151 120/137/121 97/115/99
f 125/167/151 97/115/99 124/168/152
f 124/168/152 97/115/99 123/169/153
f 124/168/152 123/169/153 132/170/154
f 132/170/154 123/169/153 131/171/155
f 132/170/154 131/171/155 140/172/156
f 140/172/156 131/171/155 139/121/105
f 140/172/156 139/121/105 148/123/107
f 123/169/153 97/115/99 122/173/157
f 122/173/157 97/115/99 121/117/101
f 122/173/157 121/117/101 130/119/103
f 131/171/155 123/169/153 122/173/157
f 131/171/155 122/173/157 130/119/103
f 134/133/117 126/135/119 125/167/151
f 125/167/151 124/168/152 133/174/158
f 133/174/158 124/168/152 132/170/154
f 133/174/158 132/170/154 141/175/159
f 141/175/159 132/170/154 140/172/156
f 141/175/159 140/172/156 149/176/160
f 149/176/160 140/172/156 148/123/107
f 149/176/160 148/123/107 157/125/109
f 136/141/125 128/138/122 127/136/120
f 136/141/125 127/136/120 135/134/118
f 139/121/105 131/171/155 130/119/103
f 142/131/115 134/133/117 133/174/158
f 133/174/158 134/133/117 125/167/151
f 142/131/115 133/174/158 141/175/159
f 144/143/127 136/141/125 135/134/118
f 144/143/127 135/134/118 143/132/116
f 150/129/113 142/131/115 141/175/159
f 150/129/113 141/175/159 149/176/160
f 152/145/129 144/143/127 143/132/116
f 152/145/129 143/132/116 151/130/114
f 158/127/111 150/129/113 149/176/160
f 158/127/111 149/176/160 157/125/109
f 160/147/131 152/145/129 151/130/114
f 160/147/131 151/130/114 159/128/112
f 99/177/161 98/178/162 100/179/163
f 100/179/163 98/178/162 97/180/164
f 100/179/163 97/180/164 161/181/165
f 162/182/166 163/183/167 161/181/165
f 161/181/165 163/183/167 100/179/163
f 163/183/167 164/184/168 100/179/163
f 97/185/169 120/186/170 161/187/171
f 161/187/171 120/186/170 165/188/172
f 100/189/134 164/190/173 101/191/133
f 101/191/133 164/190/173 176/192/174
f 176/192/174 164/190/173 174/193/175
f 176/192/174 174/193/175 175/194/176
f 174/193/175 164/190/173 168/195/177
f 168/195/177 164/190/173 166/196/178
f 168/195/177 166/196/178 167/197/179
f 167/197/179 166/196/178 116/198/149
f 116/198/149 166/196/178 117/199/150
f 168/195/177 169/200/180 174/193/175
f 174/193/175 169/200/180 173/201/181
f 173/201/181 169/200/180 170/202/182
f 173/201/181 170/202/182 171/203/183
f 171/203/183 172/204/184 173/201/181
f 40/205/185 165/206/186 81/207/187
f 81/207/187 165/206/186 120/208/188
f 81/207/187 120/208/188 117/209/189
f 117/209/189 120/208/188 119/210/190
f 117/209/189 119/210/190 118/211/191
f 40/205/185 39/212/192 165/206/186
f 165/206/186 39/212/192 38/213/193
f 165/206/186 38/213/193 37/214/194
f 37/214/194 36/215/195 165/206/186
f 165/206/186 36/215/195 35/216/196
f 165/206/186 35/216/196 34/217/197
f 165/206/186 34/217/197 178/218/198
f 178/218/198 34/217/197 14/219/199
f 178/218/198 14/219/199 13/220/200
f 13/220/200 12/221/201 178/218/198
f 178/218/198 12/221/201 11/222/202
f 178/218/198 11/222/202 10/223/203
f 10/223/203 9/224/204 178/218/198
f 178/218/198 9/224/204 177/225/205
f 177/225/205 9/224/204 8/226/206
f 177/225/205 8/226/206 26/227/207
f 26/227/207 62/228/208 177/225/205
f 177/225/205 62/228/208 61/229/209
f 177/225/205 61/229/209 166/230/210
f 166/230/210 61/229/209 60/231/211
f 166/230/210 60/231/211 59/232/212
f 59/232/212 58/233/213 166/230/210
f 166/230/210 58/233/213 57/234/214
f 166/230/210 57/234/214 74/235/215
f 74/235/215 86/236/216 166/230/210
f 166/230/210 86/236/216 117/209/189
f 117/209/189 86/236/216 85/237/217
f 117/209/189 85/237/217 84/238/218
f 84/238/218 83/239/219 117/209/189
f 117/209/189 83/239/219 82/240/220
f 117/209/189 82/240/220 81/207/187
f 180/241/221 182/242/222 179/243/223
f 179/243/223 182/242/222 183/244/224
f 179/243/223 183/244/224 199/245/225
f 199/245/225 183/244/224 207/246/226
f 199/245/225 207/246/226 208/247/227
f 208/247/227 207/246/226 216/248/228
f 208/247/227 216/248/228 217/249/229
f 217/249/229 216/248/228 225/250/230
f 217/249/229 225/250/230 226/251/231
f 226/251/231 225/250/230 234/252/232
f 226/251/231 234/252/232 235/253/233
f 235/253/233 234/252/232 189/254/234
f 235/253/233 189/254/234 236/255/235
f 236/255/235 189/254/234 237/256/236
f 236/255/235 237/256/236 228/257/237
f 228/257/237 237/256/236 229/258/238
f 228/257/237 229/258/238 220/259/239
f 220/259/239 229/258/238 221/260/240
f 220/259/239 221/260/240 212/261/241
f 212/261/241 221/260/240 213/262/242
f 212/261/241 213/262/242 204/263/243
f 204/263/243 213/262/242 205/264/244
f 204/263/243 205/264/244 198/265/245
f 198/265/245 205/264/244 206/266/246
f 198/265/245 206/266/246 194/267/247
f 194/267/247 206/266/246 193/268/248
f 193/268/248 206/266/246 214/269/249
f 193/268/248 214/269/249 192/270/250
f 192/270/250 214/269/249 222/271/251
f 192/270/250 222/271/251 191/272/252
f 191/272/252 222/271/251 230/273/253
f 191/272/252 230/273/253 190/274/254
f 190/274/254 230/273/253 238/275/255
f 190/274/254 238/275/255 189/254/234
f 189/254/234 238/275/255 237/256/236
f 180/241/221 181/276/256 182/242/222
f 182/242/222 181/276/256 171/277/183
f 171/277/183 181/276/256 172/278/184
f 183/244/224 184/279/257 207/246/226
f 207/246/226 184/279/257 215/280/258
f 207/246/226 215/280/258 216/248/228
f 216/248/228 215/280/258 224/281/259
f 216/248/228 224/281/259 225/250/230
f 225/250/230 224/281/259 233/282/260
f 225/250/230 233/282/260 234/252/232
f 234/252/232 233/282/260 188/283/261
f 234/252/232 188/283/261 189/254/234
f 184/279/257 185/284/262 215/280/258
f 215/280/258 185/284/262 223/285/263
f 215/280/258 223/285/263 224/281/259
f 224/281/259 223/285/263 232/286/264
f 224/281/259 232/286/264 233/282/260
f 233/282/260 232/286/264 188/283/261
f 185/284/262 186/287/265 223/285/263
f 223/285/263 186/287/265 231/288/266
f 223/285/263 231/288/266 232/286/264
f 232/286/264 231/288/266 188/283/261
f 186/287/265 187/289/267 231/288/266
f 231/288/266 187/289/267 188/283/261
f 194/267/247 195/290/268 198/265/245
f 198/265/245 195/290/268 197/291/269
f 197/291/269 195/290/268 196/292/270
f 196/292/270 195/290/268 176/293/174
f 196/292/270 176/293/174 175/294/176
f 204/263/243 198/265/245 203/295/271
f 203/295/271 198/265/245 179/243/223
f 203/295/271 179/243/223 202/296/272
f 202/296/272 179/243/223 201/297/273
f 202/296/272 201/297/273 210/298/274
f 210/298/274 201/297/273 209/299/275
f 210/298/274 209/299/275 218/300/276
f 218/300/276 209/299/275 217/249/229
f 218/300/276 217/249/229 226/251/231
f 201/297/273 179/243/223 200/301/277
f 200/301/277 179/243/223 199/245/225
f 200/301/277 199/245/225 208/247/227
f 209/299/275 201/297/273 200/301/277
f 209/299/275 200/301/277 208/247/227
f 212/261/241 204/263/243 203/295/271
f 203/295/271 202/296/272 211/302/278
f 211/302/278 202/296/272 210/298/274
f 211/302/278 210/298/274 219/303/279
f 219/303/279 210/298/274 218/300/276
f 219/303/279 218/300/276 227/304/280
f 227/304/280 218/300/276 226/251/231
f 227/304/280 226/251/231 235/253/233
f 214/269/249 206/266/246 205/264/244
f 214/269/249 205/264/244 213/262/242
f 217/249/229 209/299/275 208/247/227
f 220/259/239 212/261/241 211/302/278
f 211/302/278 212/261/241 203/295/271
f 220/259/239 211/302/278 219/303/279
f 222/271/251 214/269/249 213/262/242
f 222/271/251 213/262/242 221/260/240
f 228/257/237 220/259/239 219/303/279
f 228/257/237 219/303/279 227/304/280
f 230/273/253 222/271/251 221/260/240
f 230/273/253 221/260/240 229/258/238
f 236/255/235 228/257/237 227/304/280
f 236/255/235 227/304/280 235/253/233
f 238/275/255 230/273/253 229/258/238
f 238/275/255 229/258/238 237/256/236
f 189/305/234 188/306/261 240/307/281
f 240/307/281 188/306/261 239/308/282
f 80/309/283 109/310/284 27/311/285
f 27/311/285 109/310/284 241/312/286
f 27/311/285 241/312/286 28/313/287
f 28/313/287 241/312/286 29/314/288
f 29/314/288 241/312/286 30/315/289
f 30/315/289 241/312/286 31/316/290
f 31/316/290 241/312/286 32/317/291
f 32/317/291 241/312/286 33/318/292
f 33/318/292 241/312/286 247/319/293
f 33/318/292 247/319/293 1/320/294
f 1/320/294 247/319/293 2/321/295
f 2/321/295 247/319/293 3/322/296
f 3/322/296 247/319/293 4/323/297
f 4/323/297 247/319/293 5/324/298
f 5/324/298 247/319/293 6/325/299
f 6/325/299 247/319/293 7/326/300
f 7/326/300 247/319/293 248/327/301
f 7/326/300 248/327/301 25/328/302
f 25/328/302 248/327/301 51/329/303
f 51/329/303 248/327/301 52/330/304
f 52/330/304 248/327/301 167/331/305
f 52/330/304 167/331/305 53/332/306
f 53/332/306 167/331/305 54/333/307
f 54/333/307 167/331/305 55/334/308
f 55/334/308 167/331/305 56/335/309
f 56/335/309 167/331/305 73/336/310
f 73/336/310 167/331/305 116/337/311
f 73/336/310 116/337/311 112/338/312
f 112/338/312 116/337/311 113/339/313
f 113/339/313 116/337/311 114/340/314
f 114/340/314 116/337/311 115/341/315
f 80/309/283 79/342/316 109/310/284
f 109/310/284 79/342/316 78/343/317
f 109/310/284 78/343/317 77/344/318
f 77/344/318 76/345/319 109/310/284
f 109/310/284 76/345/319 75/346/320
f 109/310/284 75/346/320 110/347/321
f 110/347/321 75/346/320 111/348/322
f 111/348/322 75/346/320 73/336/310
f 111/348/322 73/336/310 112/338/312
f 247/319/293 241/312/286 244/349/323
f 244/349/323 241/312/286 239/350/324
f 244/349/323 239/350/324 243/351/325
f 243/351/325 239/350/324 242/352/326
f 242/352/326 239/350/324 188/353/327
f 242/352/326 188/353/327 170/354/328
f 170/354/328 188/353/327 187/355/329
f 170/354/328 187/355/329 186/356/330
f 186/356/330 185/357/331 170/354/328
f 170/354/328 185/357/331 171/358/332
f 171/358/332 185/357/331 184/359/333
f 171/358/332 184/359/333 183/360/334
f 183/360/334 182/361/335 171/358/332
f 245/362/336 246/363/337 244/349/323
f 244/349/323 246/363/337 247/319/293
f 181/364/338 180/365/339 172/366/340
f 172/366/340 180/365/339 179/367/341
f 172/366/340 179/367/341 249/368/342
f 250/369/343 251/370/344 249/368/342
f 249/368/342 251/370/344 172/366/340
f 251/370/344 173/371/345 172/366/340
f 162/372/346 161/373/347 178/374/348
f 178/374/348 161/373/347 165/375/349
f 164/376/350 163/377/351 166/378/352
f 166/378/352 163/377/351 177/379/353
f 178/380/354 177/381/355 162/382/356
f 162/382/356 177/381/355 163/383/357
f 250/384/358 249/385/359 252/386/360
f 252/386/360 249/385/359 253/387/361
f 254/388/362 174/389/363 251/390/364
f 251/390/364 174/389/363 173/391/365
f 179/392/366 198/393/367 249/394/368
f 249/394/368 198/393/367 253/395/369
f 253/396/370 198/397/371 175/398/372
f 175/398/372 198/397/371 197/399/373
f 175/398/372 197/399/373 196/400/374
f 174/401/375 254/402/376 175/398/372
f 175/398/372 254/402/376 253/396/370
f 254/402/376 252/403/377 253/396/370
f 252/404/378 254/405/379 250/406/380
f 250/406/380 254/405/379 251/407/381
f 242/408/382 170/409/383 255/410/384
f 255/410/384 170/409/383 169/411/385
f 243/412/386 242/413/387 256/414/388
f 256/414/388 242/413/387 255/415/389
f 244/416/390 243/417/391 257/418/392
f 257/418/392 243/417/391 256/419/393
f 245/420/394 244/421/395 258/422/396
f 258/422/396 244/421/395 257/423/397
f 167/424/398 248/425/399 168/426/400
f 168/426/400 248/425/399 259/427/401
f 248/428/402 247/429/403 259/430/404
f 259/430/404 247/429/403 260/431/405
f 247/432/406 246/433/407 260/434/408
f 260/434/408 246/433/407 261/435/409
f 246/436/410 245/437/411 261/438/412
f 261/438/412 245/437/411 258/439/413
f 260/440/414 261/441/415 259/442/416
f 259/442/416 261/441/415 258/443/417
f 259/442/416 258/443/417 255/444/418
f 255/444/418 258/443/417 257/445/419
f 255/444/418 257/445/419 256/446/420
f 255/444/418 169/447/421 259/442/416
f 259/442/416 169/447/421 168/448/422
f 109/449/110 108/450/139 241/451/423
f 241/451/423 108/450/139 262/452/424
f 107/453/425 190/454/426 108/455/427
f 108/455/427 190/454/426 189/456/428
f 108/455/427 189/456/428 262/457/429
f 262/457/429 189/456/428 240/458/430
f 106/459/431 101/460/432 107/453/425
f 107/453/425 101/460/432 176/461/433
f 107/453/425 176/461/433 190/454/426
f 190/454/426 176/461/433 191/462/434
f 191/462/434 176/461/433 192/463/435
f 192/463/435 176/461/433 193/464/436
f 193/464/436 176/461/433 194/465/437
f 194/465/437 176/461/433 195/466/438
f 106/459/431 105/467/439 101/460/432
f 101/460/432 105/467/439 104/468/440
f 101/460/432 104/468/440 103/469/441
f 103/469/441 102/470/442 101/460/432
f 239/471/443 241/472/444 240/473/445
f 240/473/445 241/472/444 262/474/446
# 262 vertices
# 474 texture params
# 446 normals
# 524 facets

# 1 groups
